# xmcd
#
# Track frame offsets: 
#        150
#        10367
#        26868
#        39706
#        53813
#        66231
#        82157
#        94738
#        109429
#        121696
#        132011
#        140643
#
# Disc length: 1978 seconds
#
# Revision: 0
# Processed by: cddbd v1.5.2PL0 Copyright (c) Steve Scherf et al.
# Submitted via: ExactAudioCopyFreeDBPlugin 1.0
#
DISCID=ac07b80c
DTITLE=Lise Petersen - Grøn Som En Abe
DYEAR=2015
DGENRE=Blues
TTITLE0=Kære Gud, jeg takker dig 
TTITLE1=Det er så herligt
TTITLE2=Grøn som en abe 
TTITLE3=Min hverdag er fyldt med sang 
TTITLE4=Jesus han er barnets ven 
TTITLE5=Det er svært at se det for sig
TTITLE6=Kære Gud - Er du der?
TTITLE7=Han skabte mit øre
TTITLE8=Der er hundredvis af spurve
TTITLE9=Jeg går på livets vej
TTITLE10=Må Gud velsigne dig
TTITLE11=Kære Gud, tag min hånd
EXTD=
EXTT0=
EXTT1=
EXTT2=
EXTT3=
EXTT4=
EXTT5=
EXTT6=
EXTT7=
EXTT8=
EXTT9=
EXTT10=
EXTT11=
PLAYORDER=
